HIERARCHY
ROOT Hip
{
  OFFSET 0.0 0.0 0.0
  CHANNELS 6 Xposition Yposition Zposition Xrotation Yrotation Zrotation
  JOINT LowerSpine
  {
    OFFSET 0.0 0.061367 -0.03653
    CHANNELS 3 Xrotation Yrotation Zrotation
    JOINT MiddleSpine
    {
      OFFSET 0.0 0.056002 0.002633
      CHANNELS 3 Xrotation Yrotation Zrotation
      JOINT Chest
      {
        OFFSET 0.0 0.069296 -0.013882
        CHANNELS 3 Xrotation Yrotation Zrotation
        JOINT Neck
        {
          OFFSET 0.0 0.156156 -0.002923
          CHANNELS 3 Xrotation Yrotation Zrotation
          JOINT Head
          {
            OFFSET 0.0 0.088183 0.023986
            CHANNELS 3 Xrotation Yrotation Zrotation
            End Site
            {
              OFFSET 1e-06 0.123215 0.003678
            }
          }
        }
        JOINT LClavicle
        {
          OFFSET 0.014189 0.150698 0.046467
          CHANNELS 3 Xrotation Yrotation Zrotation
          JOINT LShoulder
          {
            OFFSET 0.082893 0.021616 -0.034976
            CHANNELS 3 Xrotation Yrotation Zrotation
            JOINT LForearm
            {
              OFFSET 0.195645 -0.000695 -0.001695
              CHANNELS 3 Xrotation Yrotation Zrotation
              JOINT LHand
              {
                OFFSET 0.163209 0.000474 -0.000977
                CHANNELS 3 Xrotation Yrotation Zrotation
                End Site
                {
                  OFFSET 0.0 0.006864 0.0
                }
              }
            }
          }
        }
        JOINT RClavicle
        {
          OFFSET -0.014189 0.150698 0.046467
          CHANNELS 3 Xrotation Yrotation Zrotation
          JOINT RShoulder
          {
            OFFSET -0.082908 0.021619 -0.034982
            CHANNELS 3 Xrotation Yrotation Zrotation
            JOINT RForearm
            {
              OFFSET -0.195645 -0.000695 -0.001695
              CHANNELS 3 Xrotation Yrotation Zrotation
              JOINT RHand
              {
                OFFSET -0.163209 0.000474 -0.000977
                CHANNELS 3 Xrotation Yrotation Zrotation
                End Site
                {
                  OFFSET 0.0 0.006864 0.0
                }
              }
            }
          }
        }
      }
    }
  }
  JOINT RThigh
  {
    OFFSET -0.072558 0.02774 -0.005953
    CHANNELS 3 Xrotation Yrotation Zrotation
    JOINT RShin
    {
      OFFSET -0.005253 -0.285537 0.0
      CHANNELS 3 Xrotation Yrotation Zrotation
      JOINT RFoot
      {
        OFFSET 0.0 -0.28038 0.0
        CHANNELS 3 Xrotation Yrotation Zrotation
        JOINT RToe
        {
          OFFSET 0.0 -0.030816 0.064441
          CHANNELS 3 Xrotation Yrotation Zrotation
          End Site
          {
            OFFSET 0.0 0.0 0.043231
          }
        }
      }
    }
  }
  JOINT LThigh
  {
    OFFSET 0.072557 0.027741 -0.005953
    CHANNELS 3 Xrotation Yrotation Zrotation
    JOINT LShin
    {
      OFFSET 0.005253 -0.285539 0.0
      CHANNELS 3 Xrotation Yrotation Zrotation
      JOINT LFoot
      {
        OFFSET 0.0 -0.28038 0.0
        CHANNELS 3 Xrotation Yrotation Zrotation
        JOINT LToe
        {
          OFFSET 0.0 -0.030816 0.064441
          CHANNELS 3 Xrotation Yrotation Zrotation
          End Site
          {
            OFFSET 0.0 0.0 0.043231
          }
        }
      }
    }
  }
}
MOTION
Frames: 18
Frame Time: 0.03333333333333333
-0.02604 0.588818 -0.022166 4.087679 -1.150383 -1.281506 0.038167 -0.451084 -0.695051 -0.265295 1.545602 0.358677 -2.194231 3.391584 0.286858 -0.680159 0.44859 0.085891 0.048268 -0.075854 -0.014302 0.603903 0.154955 -12.670043 18.941481 -25.344885 -55.281971 11.39587 -37.203697 0.516492 0.189215 0.248794 -0.166707 -0.057535 -2.077485 13.075442 12.254472 29.933964 59.868603 7.165227 29.115877 -1.338989 0.116048 -0.395025 0.003648 -11.810492 -2.251801 -0.6846 11.946621 -4.288335 2.623765 -2.385998 0.830236 -0.07998 0.118672 0.695924 0.118595 -7.896333 7.409273 5.284235 9.292349 8.144383 -3.951042 -2.317096 0.435211 0.43638 0.08823 -0.220407 -0.033297 
-0.023609 0.592003 -0.014866 3.569288 -0.163653 -1.03261 0.487793 -0.327116 -0.17094 -1.01355 0.966012 0.62816 -2.471222 3.131509 -0.032909 0.303697 0.270097 -0.09009 0.04207 -0.21 -0.046588 -0.081364 -0.272232 -12.882445 19.36022 -20.388611 -56.359627 10.701158 -36.496632 1.295288 0.132027 0.194976 -0.157439 -0.62275 -1.042048 13.077585 11.534516 23.853649 60.311302 7.042178 30.963495 -0.613692 -0.076792 -0.260982 -0.010572 -11.523105 -2.334523 -1.147925 14.479034 -4.242581 1.942358 -0.959357 0.335508 -0.211153 -0.054412 0.422534 0.143121 -5.363818 9.915963 3.479314 8.199444 8.198395 -3.389188 -2.363464 0.196644 0.614442 0.090324 -0.209494 -0.062475 
-0.023565 0.594225 -0.024163 4.553226 1.452055 -1.230234 0.541026 -0.357656 -0.369046 -1.000712 0.784561 0.746998 -2.937124 1.9475 1.065718 0.347005 0.157858 -0.093808 0.026532 -0.120199 -0.03897 -0.134703 -0.197643 -13.024935 18.161188 -18.340204 -58.298351 9.53008 -37.444889 1.178496 0.092852 0.152251 -0.118952 -0.433919 -0.853207 12.961475 11.097285 19.436077 59.962807 4.305027 40.169273 -0.469894 -0.007499 -0.248529 -0.001524 -12.28669 -4.966033 -1.694624 12.291757 -5.222745 2.43588 -0.784768 0.486335 -0.061953 0.021061 0.362908 0.088718 -7.053568 8.345813 2.561623 8.118651 7.507228 -2.717543 -2.330786 0.334851 0.588342 0.063007 -0.140237 -0.031056 
-0.020195 0.597227 -0.024815 4.324112 2.155074 -1.648461 0.408296 -0.40177 -0.369696 -0.81028 0.80446 0.899105 -2.444318 1.878028 1.834877 0.189456 0.174648 -0.151652 0.027176 -0.130008 -0.039469 -0.062354 -0.297366 -13.948945 16.924503 -17.172165 -60.234913 8.150747 -36.674713 0.950357 0.092524 0.161437 -0.124887 -0.297105 -0.999954 12.777026 9.801356 14.029622 59.412716 -0.032583 49.451672 -0.43941 -0.003877 -0.261767 -0.004938 -10.719491 -6.108095 -1.153782 9.490284 -5.759122 2.190391 -0.785036 0.741288 0.006287 0.03125 0.393761 0.104232 -5.954231 6.409215 1.884668 6.744886 6.196733 -1.783867 -2.439028 0.527375 0.724817 0.068988 -0.145303 -0.035937 
-0.016807 0.59595 -0.025633 3.481089 1.768422 -2.238227 0.347583 -0.446777 -0.380765 -0.645606 0.825955 1.088997 -1.967921 2.180776 2.560687 0.065653 0.179679 -0.187615 0.030249 -0.132195 -0.043051 -0.023136 -0.407731 -14.780982 15.519387 -17.364002 -61.963497 6.81201 -35.120106 0.675349 0.095675 0.166842 -0.132865 -0.185603 -1.066731 12.481778 7.407259 9.283819 59.089661 -5.366327 58.145565 -1.58975 0.009669 -0.279779 -0.007933 -8.846176 -6.660734 -0.247954 6.603388 -5.980587 1.944155 -0.978674 1.013852 0.105274 0.044413 0.428912 0.112705 -4.545459 4.520365 1.290664 5.720907 4.701852 -0.730778 -2.700305 0.826874 0.879817 0.074836 -0.149973 -0.037417 
-0.011266 0.593966 -0.022512 2.724481 0.977253 -2.476415 0.190988 -0.426727 -0.321682 -0.477597 0.85116 1.241058 -1.433834 2.172271 3.322374 -0.09358 0.169883 -0.221793 0.030569 -0.125432 -0.041393 0.040265 -0.305948 -15.815998 14.855163 -17.671429 -63.57394 6.150411 -33.337551 0.176952 0.089952 0.152522 -0.125134 0.006438 -1.146023 12.309096 4.007052 6.614917 57.886776 -11.574738 66.097198 -2.123847 0.018381 -0.265285 -0.008369 -6.518178 -6.368045 0.427783 4.342287 -5.835143 1.524579 -1.437324 1.199761 0.197391 0.043207 0.414317 0.115971 -3.022916 3.268751 0.740725 4.881744 3.749132 0.195274 -2.858323 1.25976 1.069849 0.078654 -0.132445 -0.030509 
-0.004169 0.592632 -0.018949 2.320343 0.276378 -2.545704 -0.085806 -0.408502 -0.208538 -0.27894 0.873228 1.314555 -0.806844 1.981747 3.744845 -0.321976 0.137709 -0.205975 0.030084 -0.102638 -0.03724 0.077634 -0.21148 -16.968143 14.453973 -18.425158 -65.00882 5.505652 -31.000227 -0.666595 0.084849 0.134587 -0.114704 0.234078 -1.395853 12.295835 0.917496 5.463545 56.468231 -16.419975 74.281952 -3.218716 0.028588 -0.242792 -0.007801 -4.727804 -5.969428 0.705804 2.768558 -5.465942 0.940539 -1.832192 1.312424 0.267942 0.041365 0.387342 0.11756 -1.568846 2.395354 0.193923 3.963178 3.272429 0.683596 -3.00512 1.703417 1.251276 0.075248 -0.113844 -0.021629 
0.003049 0.591274 -0.014849 1.954653 -0.346253 -2.569514 -0.340701 -0.378776 -0.09073 -0.094655 0.801524 1.280742 -0.562471 1.4138 3.961558 -0.436892 0.081961 -0.200802 0.026057 -0.07589 -0.024228 -0.029161 -0.289377 -18.062017 13.962971 -19.065651 -66.254692 4.797283 -28.151495 -1.295071 0.06675 0.100963 -0.087688 0.426067 -1.569547 12.416171 -2.255761 4.555258 55.060791 -17.695396 82.907204 -6.821424 0.025104 -0.192938 -0.004273 -3.360765 -5.519784 0.719799 1.852693 -4.873763 0.27762 -2.008853 1.237254 0.308583 0.031448 0.316427 0.104136 -0.142098 1.638724 -0.445926 3.06126 2.851557 1.107444 -3.246643 2.183242 1.443947 0.058493 -0.082758 -0.012764 
0.009758 0.589989 -0.009064 1.607501 -0.852385 -2.683336 -0.630399 -0.32031 0.070479 0.050057 0.696564 1.205591 -0.060137 0.864415 4.137918 -0.525878 0.04144 -0.18404 0.019573 -0.054964 -0.010838 -0.14814 -0.334498 -19.162609 13.62905 -18.934469 -67.447197 3.933083 -25.628912 -1.771413 0.046497 0.065267 -0.060333 0.636775 -1.60241 12.631208 -5.986174 3.734926 52.746571 127.361244 88.199303 -155.740051 0.000364 -0.131716 -0.002404 -2.229074 -4.831838 0.644465 1.305501 -4.242995 -0.327306 -1.998083 1.067394 0.345466 0.012477 0.217679 0.087009 1.150527 1.253797 -0.944966 2.471795 2.65863 1.487953 -3.528075 2.709944 1.658424 0.038465 -0.054905 -0.007668 
0.016047 0.590991 -0.003426 1.27013 -1.476779 -2.924426 -0.856786 -0.278683 0.243115 0.154368 0.610545 1.19691 0.432954 0.498113 4.223952 -0.621131 0.04005 -0.140737 0.018909 -0.068638 -0.007187 -0.294205 -0.481314 -20.10474 13.376639 -19.08753 -68.59948 3.510699 -23.826727 -1.873066 0.041211 0.058815 -0.058735 0.767467 -1.633435 12.785014 -9.603323 3.272557 50.552834 141.712036 82.98983 -173.69455 -0.045167 -0.098615 -0.009329 -1.305647 -4.279769 0.890944 0.959214 -3.667601 -0.850652 -1.923946 0.980786 0.359942 -0.012082 0.163748 0.085187 2.331843 1.074392 -1.372293 2.017879 2.608778 1.801157 -3.853717 3.149042 1.860487 0.031789 -0.052431 -0.011636 
0.021661 0.592644 0.001308 1.010073 -1.885012 -3.135187 -1.083788 -0.260225 0.418963 0.268821 0.585758 1.202242 0.845122 0.307987 4.332344 -0.781567 0.046516 -0.105498 0.017052 -0.089065 -0.004806 -0.450909 -0.721739 -21.083031 13.169669 -19.31847 -69.545006 3.231145 -22.343193 -1.910576 0.04063 0.058719 -0.059657 0.852505 -1.705016 12.799599 -12.74149 3.304468 48.478252 141.510422 78.408951 -175.92601 -0.084392 -0.079204 -0.018287 -0.484621 -3.876418 0.987032 0.691405 -3.210944 -1.329167 -1.848798 0.877477 0.348572 -0.032119 0.129637 0.083843 3.364745 0.878671 -1.847153 1.661364 2.531046 1.956173 -4.10959 3.504001 2.046264 0.032111 -0.056035 -0.016373 
0.027633 0.593834 0.003985 0.754792 -1.887117 -3.395971 -1.301025 -0.289892 0.589963 0.377812 0.579413 1.258039 1.010493 0.255838 4.2943 -1.03248 0.050255 -0.03762 0.015927 -0.113229 -0.005084 -0.674109 -1.075583 -22.066969 13.155365 -19.455151 -70.297913 2.973507 -21.087326 -2.064293 0.046711 0.068293 -0.069103 0.884671 -1.744038 12.677938 -15.511744 4.094 46.50621 141.187592 74.725243 -177.343018 -0.118026 -0.072372 -0.027846 0.263807 -3.517767 0.865026 0.372328 -2.888337 -1.68946 -1.892005 0.795916 0.314256 -0.048799 0.104866 0.082026 4.150966 0.77385 -2.295493 1.40635 2.324341 1.957023 -4.2984 3.745004 2.206864 0.039715 -0.064975 -0.022761 
0.033564 0.595077 0.004181 0.386807 -1.85451 -3.595502 -1.423682 -0.310467 0.718839 0.493028 0.5764 1.309536 1.063884 0.245249 4.128549 -1.268305 0.051014 0.027467 0.015007 -0.125166 -0.007389 -0.926526 -1.396147 -22.996674 13.285158 -19.49983 -70.63118 2.720903 -20.38842 -2.32032 0.051072 0.074715 -0.076201 0.899337 -1.768634 12.471972 -17.726377 5.112137 45.169819 142.029144 72.100601 -178.68602 -0.140508 -0.069556 -0.033779 0.768805 -3.325235 0.598215 0.152561 -2.704938 -1.89925 -2.086631 0.725627 0.255544 -0.050026 0.081457 0.07711 4.75951 0.848762 -2.765085 1.315494 2.153162 1.915916 -4.426788 3.894237 2.327915 0.043104 -0.073215 -0.02755 
0.03903 0.595483 0.003151 0.087452 -1.654989 -3.665992 -1.508911 -0.345193 0.822336 0.59927 0.576294 1.352846 0.883535 0.311641 4.015645 -1.44087 0.055013 0.073997 0.014298 -0.131923 -0.012025 -1.128349 -1.639947 -23.740152 13.369732 -19.644236 -70.848892 2.52489 -19.66585 -2.534685 0.052758 0.078061 -0.077553 0.908078 -1.831155 12.136081 -20.047802 6.434767 44.049477 142.744034 70.194069 -179.289047 -0.149049 -0.078146 -0.037967 1.228588 -3.230304 0.289718 -0.119032 -2.601475 -2.030534 -2.250687 0.658303 0.193985 -0.048979 0.071776 0.074936 5.159176 0.964285 -3.206327 1.223455 1.975401 1.839168 -4.501732 4.011304 2.42339 0.047557 -0.079475 -0.029813 
0.043692 0.595803 0.001738 -0.144777 -1.45307 -3.73176 -1.583918 -0.383476 0.912533 0.677124 0.579666 1.406076 0.735921 0.451031 3.92688 -1.5899 0.059133 0.106144 0.014626 -0.14146 -0.017146 -1.292169 -1.83946 -24.32196 13.468637 -19.852932 -71.031921 2.495029 -19.146326 -2.691634 0.056601 0.08384 -0.082474 0.889244 -1.880133 11.839565 -21.863192 7.771452 43.233871 143.438934 68.959373 -179.617004 -0.160677 -0.085741 -0.041591 1.537456 -3.148663 0.001127 -0.294072 -2.559563 -2.114351 -2.395477 0.598888 0.131292 -0.049566 0.069129 0.07541 5.417512 1.11786 -3.522718 1.169382 1.832323 1.747568 -4.566387 4.082416 2.487629 0.055118 -0.088429 -0.03293 
0.04717 0.596059 0.000175 -0.262174 -1.25351 -3.778847 -1.649165 -0.417561 0.979185 0.710744 0.581398 1.460367 0.552525 0.602095 3.873788 -1.712082 0.061301 0.125697 0.016063 -0.148595 -0.021827 -1.396548 -1.972848 -24.72476 13.586492 -20.044498 -71.118385 2.617663 -18.931488 -2.813129 0.062683 0.092436 -0.090778 0.859994 -1.931724 11.576012 -23.425465 9.049743 42.560123 143.761078 68.522453 -179.64386 -0.169062 -0.094646 -0.044288 1.652976 -3.096234 -0.277088 -0.366915 -2.542994 -2.159389 -2.488423 0.555321 0.072642 -0.052222 0.073636 0.07662 5.463724 1.260608 -3.793026 1.192882 1.736351 1.652848 -4.603642 4.105587 2.518768 0.064126 -0.098076 -0.035603 
0.049227 0.596514 -0.000862 -0.308787 -1.077079 -3.85134 -1.694452 -0.450053 1.035482 0.717689 0.590033 1.529986 0.369531 0.75976 3.861785 -1.794654 0.071689 0.141506 0.018853 -0.164129 -0.025139 -1.463854 -2.104821 -25.03673 13.676478 -20.075598 -71.278938 2.683149 -18.937822 -2.838175 0.072022 0.105654 -0.101941 0.819246 -2.026044 11.324039 -24.723003 10.063597 41.97871 143.720581 68.648491 -179.564072 -0.183115 -0.102997 -0.047702 1.669264 -3.150678 -0.398689 -0.37322 -2.586785 -2.221523 -2.503404 0.51537 0.002431 -0.063706 0.082657 0.081285 5.404015 1.369668 -3.992786 1.213745 1.669168 1.589833 -4.603367 4.119209 2.562043 0.075223 -0.11198 -0.04048 
0.050238 0.596904 -0.001453 -0.336154 -1.03124 -3.919234 -1.715559 -0.483748 1.078475 0.707582 0.609962 1.614128 0.199018 0.922266 3.880368 -1.859987 0.091542 0.154277 0.023111 -0.187768 -0.029977 -1.505593 -2.254122 -25.267241 13.724363 -20.031664 -71.51944 2.802846 -19.21203 -2.771236 0.08476 0.124045 -0.117158 0.768434 -2.155522 11.076195 -26.182255 10.819759 41.488705 143.093338 69.225822 -179.228333 -0.200489 -0.118243 -0.052704 1.603148 -3.193757 -0.39014 -0.380925 -2.622187 -2.290982 -2.491369 0.505614 -0.065491 -0.078553 0.103643 0.090378 5.314645 1.509272 -4.132536 1.220475 1.633992 1.531999 -4.606796 4.138981 2.620391 0.088982 -0.131507 -0.047144 
